HIERARCHY
ROOT Hips
{
	OFFSET -0.001795 -0.223333 0.028219
	CHANNELS 6 Xposition Yposition Zposition Zrotation Yrotation Xrotation 
	JOINT LeftUpLeg
	{
		OFFSET 0.069520 -0.091406 -0.006815
		CHANNELS 3 Zrotation Yrotation Xrotation
		JOINT LeftLeg
		{
			OFFSET 0.034277 -0.375199 -0.004496
			CHANNELS 3 Zrotation Yrotation Xrotation
			JOINT LeftFoot
			{
				OFFSET -0.013596 -0.397961 -0.043693
				CHANNELS 3 Zrotation Yrotation Xrotation
				JOINT LeftToe
				{
					OFFSET 0.026358 -0.055791 0.119288
					CHANNELS 3 Zrotation Yrotation Xrotation
					End Site
					{
						OFFSET 0.000000 0.000000 0.000000
					}
				}
			}
		}
	}
	JOINT RightUpLeg
	{
		OFFSET -0.067670 -0.090522 -0.004320
		CHANNELS 3 Zrotation Yrotation Xrotation
		JOINT RightLeg
		{
			OFFSET -0.038290 -0.382569 -0.008850
			CHANNELS 3 Zrotation Yrotation Xrotation
			JOINT RightFoot
			{
				OFFSET 0.015774 -0.398415 -0.042312
				CHANNELS 3 Zrotation Yrotation Xrotation
				JOINT RightToe
				{
					OFFSET -0.025372 -0.048144 0.123348
					CHANNELS 3 Zrotation Yrotation Xrotation
					End Site
					{
						OFFSET 0.000000 0.000000 0.000000
					}
				}
			}
		}
	}
	JOINT Spine
	{
		OFFSET -0.002533 0.108963 -0.026696
		CHANNELS 3 Zrotation Yrotation Xrotation
		JOINT Spine1
		{
			OFFSET 0.005487 0.135180 0.001092
			CHANNELS 3 Zrotation Yrotation Xrotation
			JOINT Spine2
			{
				OFFSET 0.001457 0.052922 0.025425
				CHANNELS 3 Zrotation Yrotation Xrotation
				JOINT Neck
				{
					OFFSET -0.002778 0.213870 -0.042857
					CHANNELS 3 Zrotation Yrotation Xrotation
					JOINT Head
					{
						OFFSET 0.005152 0.064970 0.051349
						CHANNELS 3 Zrotation Yrotation Xrotation
						End Site
						{
							OFFSET 0.000000 0.000000 0.000000
						}
					}
				}
				JOINT LeftShoulder
				{
					OFFSET 0.078845 0.121749 -0.034090
					CHANNELS 3 Zrotation Yrotation Xrotation
					JOINT LeftArm
					{
						OFFSET 0.090977 0.030469 -0.008868
						CHANNELS 3 Zrotation Yrotation Xrotation
						JOINT LeftForeArm
						{
							OFFSET 0.259612 -0.012772 -0.027456
							CHANNELS 3 Zrotation Yrotation Xrotation
							JOINT LeftHand
							{
								OFFSET 0.249234 0.008986 -0.001171
								CHANNELS 3 Zrotation Yrotation Xrotation
								End Site
								{
									OFFSET 0.000000 0.000000 0.000000
								}
							}
						}
					}
				}
				JOINT RightShoulder
				{
					OFFSET -0.081759 0.118833 -0.038615
					CHANNELS 3 Zrotation Yrotation Xrotation
					JOINT RightArm
					{
						OFFSET -0.096012 0.032551 -0.009143
						CHANNELS 3 Zrotation Yrotation Xrotation
						JOINT RightForeArm
						{
							OFFSET -0.253742 -0.013329 -0.021401
							CHANNELS 3 Zrotation Yrotation Xrotation
							JOINT RightHand
							{
								OFFSET -0.255298 0.007772 -0.005559
								CHANNELS 3 Zrotation Yrotation Xrotation
								End Site
								{
									OFFSET 0.000000 0.000000 0.000000
								}
							}
						}
					}
				}
			}
		}
	}
}
MOTION
Frames: 16
Frame Time: 0.050000
-0.180887 0.967113 0.422266 159.828459 79.787380 161.404012 -3.236906 -1.419953 -13.205978 3.696516 -2.387779 12.318260 -15.459379 -20.397275 9.215831 0.000000 0.000000 0.000000 -1.932118 -2.274040 -7.082769 -5.145615 -2.774081 12.622263 9.236588 6.775234 1.809067 0.000000 0.000000 0.000000 5.498930 -4.289058 17.882759 -5.531469 1.814866 -25.260375 2.675560 17.986850 28.485844 -0.513778 9.204476 -31.179669 0.000000 0.000000 0.000000 -21.651703 -16.015299 -30.021486 -31.077915 24.930944 -4.522770 -27.607735 -34.412594 5.025781 0.000000 0.000000 0.000000 27.983160 -9.900743 21.059452 37.621358 30.780184 0.552035 -1.005976 36.066765 0.891449 0.000000 0.000000 0.000000 
-0.177599 0.967163 0.424496 166.229956 72.911628 168.680766 -1.817227 -1.975081 -15.168340 -0.246380 -3.282780 14.448477 -10.097382 -15.112018 6.978125 0.000000 0.000000 0.000000 -2.687516 -3.163157 -6.887662 -3.317224 -4.331529 12.905783 6.004952 -0.006411 0.171072 0.000000 0.000000 0.000000 6.064406 -4.201664 17.022343 -6.353715 1.456569 -25.250152 2.620297 17.688100 28.193994 0.550448 8.550887 -30.818225 0.000000 0.000000 0.000000 -20.771135 -16.536988 -32.775899 -31.353850 26.431136 -4.855797 -25.918235 -32.227489 4.074720 0.000000 0.000000 0.000000 28.745287 -10.930297 23.637088 35.580715 33.525336 0.730985 -2.735009 34.144542 -0.119284 0.000000 0.000000 0.000000 
-0.172989 0.966141 0.425284 168.630425 66.214669 171.235502 0.099112 -2.830056 -17.339010 -5.175683 -5.436934 18.720265 1.143692 -4.006976 5.265464 0.000000 0.000000 0.000000 -2.776962 -3.564711 -4.841850 -2.364956 -4.837003 11.299366 4.758447 -4.079107 0.562730 0.000000 0.000000 0.000000 6.100442 -4.248237 16.936005 -7.465137 0.802933 -25.977931 3.875880 17.847657 28.922541 0.450924 7.468535 -29.688532 0.000000 0.000000 0.000000 -19.717892 -18.096572 -36.197844 -30.122297 29.953142 -5.100083 -28.191070 -31.593485 4.560681 0.000000 0.000000 0.000000 28.770784 -10.911890 27.378638 33.451069 35.901178 0.931487 -7.167519 32.375186 -1.872714 0.000000 0.000000 0.000000 
-0.166955 0.966689 0.424480 169.756936 59.156218 172.909406 1.327377 -3.861970 -19.451150 -10.131891 -7.269723 20.075870 10.414284 5.083639 10.840909 0.000000 0.000000 0.000000 -3.397652 -4.303068 -2.402556 -0.629199 -5.161987 8.503619 0.918034 -10.802086 2.778849 0.000000 0.000000 0.000000 5.055230 -3.387958 15.603416 -7.241609 0.606595 -24.244314 3.515395 17.050086 27.988286 1.196911 5.970509 -29.169224 0.000000 0.000000 0.000000 -18.152331 -18.722682 -39.454162 -29.920139 32.183529 -5.581816 -28.428202 -30.090098 4.236818 0.000000 0.000000 0.000000 29.311225 -12.443932 30.389004 31.211338 39.091832 1.046887 -11.247403 29.497839 -2.987997 0.000000 0.000000 0.000000 
-0.160010 0.967801 0.421545 170.358870 53.896934 173.919692 2.696345 -4.446585 -20.057246 -13.260812 -8.242064 18.212919 19.194102 8.360910 18.955039 0.000000 0.000000 0.000000 -3.905759 -4.994438 0.353129 0.463074 -4.952189 5.522076 -0.930373 -15.091583 4.053944 0.000000 0.000000 0.000000 4.326685 -2.832478 14.751607 -7.369434 0.171810 -23.886030 4.379347 17.852284 28.208385 1.362780 4.160857 -29.369294 0.000000 0.000000 0.000000 -15.955766 -18.863410 -43.584901 -30.587631 35.055142 -6.850714 -29.090825 -28.238182 3.734277 0.000000 0.000000 0.000000 28.674235 -14.008957 33.260550 30.153835 43.302259 2.317478 -14.249509 27.674422 -3.584915 0.000000 0.000000 0.000000 
-0.152423 0.968004 0.415766 170.987697 47.188079 174.579979 1.082224 -4.301769 -19.676257 -12.016622 -8.289931 15.152201 29.390870 3.912627 25.812100 0.000000 0.000000 0.000000 -2.932099 -5.253124 3.806189 1.205110 -4.626380 1.929830 -4.187662 -20.789416 7.426163 0.000000 0.000000 0.000000 3.491235 -2.521109 14.108641 -5.801931 0.212256 -22.439749 2.279737 17.299306 27.908318 2.150247 1.908512 -29.245978 0.000000 0.000000 0.000000 -11.919828 -18.443916 -47.061559 -32.453090 37.630815 -9.535285 -31.362106 -25.802968 2.707128 0.000000 0.000000 0.000000 26.104420 -15.232403 35.702795 34.178294 49.699439 7.667558 -19.420983 23.783062 -3.961515 0.000000 0.000000 0.000000 
-0.145118 0.967258 0.406444 172.330979 43.930903 176.524361 0.916839 -4.281764 -19.371152 -9.501822 -7.129507 10.157305 35.047222 -1.848858 27.123689 0.000000 0.000000 0.000000 -2.449670 -5.509386 5.489690 2.043570 -4.642008 -0.197807 -5.342233 -22.405489 9.298434 0.000000 0.000000 0.000000 4.043496 -2.266526 13.066926 -7.438200 -0.710056 -22.784572 4.716183 18.968461 28.429323 1.555653 0.177348 -30.798487 0.000000 0.000000 0.000000 -8.730276 -18.131348 -53.296711 -31.692749 43.211552 -11.634279 -33.465713 -21.981911 1.648533 0.000000 0.000000 0.000000 23.540190 -15.797919 39.148104 35.272059 53.553228 11.918349 -23.637531 23.526911 -4.667858 0.000000 0.000000 0.000000 
-0.137939 0.962994 0.393386 172.823729 39.868827 178.471295 0.256516 -4.560457 -19.748494 -8.809277 -7.294808 7.220812 39.074260 -8.263138 29.856472 0.000000 0.000000 0.000000 -2.604738 -6.040483 5.638879 2.537662 -5.207327 -0.685361 -5.255064 -24.428549 8.955631 0.000000 0.000000 0.000000 3.421391 -1.965327 12.476746 -6.964318 -0.880186 -22.756058 4.369332 19.766250 27.835334 1.197461 -2.328884 -31.184052 0.000000 0.000000 0.000000 -5.402051 -18.594907 -60.981934 -27.936496 49.092684 -11.920463 -34.428856 -17.300648 0.203576 0.000000 0.000000 0.000000 22.315117 -17.255495 45.140077 30.649773 60.643334 12.961469 -26.707809 20.039713 -4.716688 0.000000 0.000000 0.000000 
-0.131103 0.958005 0.376384 173.292208 37.732039 179.732040 -0.006091 -4.531058 -19.529358 -8.747962 -7.698717 4.979940 41.669751 -12.664672 31.935854 0.000000 0.000000 0.000000 -2.675974 -6.409632 6.183673 2.482019 -5.298110 -1.011513 -4.249130 -26.493304 6.830637 0.000000 0.000000 0.000000 3.237469 -1.726144 11.847608 -7.951835 -1.524441 -23.564683 5.519585 21.467315 28.531140 1.584858 -3.750047 -32.212682 0.000000 0.000000 0.000000 -2.163180 -19.029182 -69.668321 -20.608678 55.295828 -9.392102 -36.376492 -12.451925 -1.242888 0.000000 0.000000 0.000000 20.708531 -18.542064 51.732539 20.554552 67.140069 9.697488 -28.690297 17.633502 -4.724773 0.000000 0.000000 0.000000 
-0.123881 0.952763 0.355109 173.988486 36.151314 -178.951005 -0.095275 -4.907922 -20.146242 -9.323573 -8.227775 5.287374 45.800345 -16.235290 33.366944 0.000000 0.000000 0.000000 -3.227177 -6.920473 6.190189 2.476888 -6.793274 1.886975 -1.085844 -24.740177 4.292716 0.000000 0.000000 0.000000 3.114181 -1.449448 11.036106 -8.054977 -1.688524 -24.338440 5.402026 22.428755 28.977149 3.159167 -3.822671 -33.019740 0.000000 0.000000 0.000000 0.682716 -18.523495 -76.895111 -10.953220 59.849215 -4.558073 -37.033421 -7.488539 -2.945011 0.000000 0.000000 0.000000 20.748500 -19.782734 57.870607 6.117102 71.315698 -0.176660 -29.519865 14.607196 -4.451371 0.000000 0.000000 0.000000 
-0.116218 0.950123 0.329263 174.070100 37.313454 -178.876457 -0.549812 -4.822388 -20.144189 -9.582038 -8.132029 6.521035 46.069580 -14.829112 33.480687 0.000000 0.000000 0.000000 -4.544640 -7.561265 6.227637 2.094533 -8.429535 5.580654 1.000166 -21.340143 3.319937 0.000000 0.000000 0.000000 2.426374 -1.240094 10.735726 -8.810012 -2.015195 -24.407011 6.625724 23.976288 29.329645 3.227352 -3.435966 -33.785942 0.000000 0.000000 0.000000 1.118429 -18.050115 -78.986433 -7.667881 60.895528 -2.407460 -37.080823 -5.088175 -3.508595 0.000000 0.000000 0.000000 19.838579 -19.588182 59.055819 3.530428 72.700790 -1.251935 -29.588582 15.083648 -4.738328 0.000000 0.000000 0.000000 
-0.108643 0.949920 0.299307 174.508176 35.622794 -178.724671 -1.907851 -4.179600 -19.030893 -8.753289 -7.930691 7.243630 45.991194 -15.735706 31.289817 0.000000 0.000000 0.000000 -5.879815 -8.529856 5.678881 1.002720 -11.784920 10.830263 5.144881 -16.159764 2.672705 0.000000 0.000000 0.000000 2.084319 -1.300205 11.101312 -8.935843 -2.256234 -25.453740 5.546636 23.564270 28.872152 6.109331 -2.205432 -33.785819 0.000000 0.000000 0.000000 3.076548 -18.089022 -80.820778 -4.840157 62.510517 -1.471429 -36.569086 -3.563164 -4.292558 0.000000 0.000000 0.000000 19.581371 -19.944922 61.666666 -0.278335 74.537535 -4.472338 -29.963382 15.131370 -5.017240 0.000000 0.000000 0.000000 
-0.101575 0.951352 0.267477 174.702038 34.360111 -179.777687 -2.716373 -2.840922 -16.169823 -9.705914 -8.649560 8.133188 47.021711 -15.727431 29.703999 0.000000 0.000000 0.000000 -7.667881 -9.909447 4.067633 -5.407954 -18.246195 21.962421 8.217494 -8.483818 5.659005 0.000000 0.000000 0.000000 1.334381 -1.368636 11.549624 -9.039067 -2.388324 -24.818807 5.793140 22.946189 29.176072 6.151560 -2.250572 -34.102278 0.000000 0.000000 0.000000 3.974601 -18.716299 -81.932868 -2.550026 62.932647 -0.013247 -37.679089 -2.468930 -4.737918 0.000000 0.000000 0.000000 19.830017 -20.893797 62.303059 -0.554114 74.211889 -5.199760 -30.566266 16.361122 -5.422011 0.000000 0.000000 0.000000 
-0.094626 0.954066 0.236398 175.768271 32.141722 179.374783 -3.332877 -1.636476 -12.619612 -8.612888 -8.305968 9.196953 46.587470 -15.369473 24.815224 0.000000 0.000000 0.000000 -8.022935 -11.109181 -1.029967 -25.645190 -27.762155 43.341807 23.412034 7.749230 10.028103 0.000000 0.000000 0.000000 0.794660 -1.910589 13.329095 -8.416990 -2.255611 -25.765589 5.002839 20.831788 30.109861 8.766145 -1.518046 -33.597188 0.000000 0.000000 0.000000 4.272321 -19.233830 -82.627104 -4.890072 62.490924 -1.079912 -37.089987 -3.402584 -4.344217 0.000000 0.000000 0.000000 19.788618 -21.979920 61.468419 9.738636 74.028926 2.268234 -30.296865 19.405492 -6.054778 0.000000 0.000000 0.000000 
-0.087004 0.959254 0.206948 176.643297 30.123202 178.468613 -4.248434 -0.719225 -7.862495 -5.858478 -6.862370 7.410851 41.637386 -14.749365 19.471440 0.000000 0.000000 0.000000 -6.648614 -12.427082 -7.923638 -54.084914 -28.138977 64.185052 47.258103 18.786777 26.162922 0.000000 0.000000 0.000000 0.187375 -2.341263 14.552064 -7.889526 -2.114208 -25.741703 4.550837 17.178794 29.978970 6.883512 -2.832128 -32.285889 0.000000 0.000000 0.000000 2.929290 -19.872446 -79.311372 -11.744533 60.313568 -4.826768 -36.723631 -5.768210 -3.344317 0.000000 0.000000 0.000000 19.825925 -21.212533 59.542561 18.438166 72.482050 8.104260 -26.709206 21.182008 -5.979722 0.000000 0.000000 0.000000 
-0.078242 0.962780 0.178473 177.765816 27.798873 177.957491 -4.458840 -0.731107 -4.235047 -3.956721 -5.943289 6.419416 42.283973 -16.171161 16.797313 0.000000 0.000000 0.000000 -4.007485 -13.265573 -13.254969 -67.704084 -25.454838 70.377818 66.658338 18.423721 37.618406 0.000000 0.000000 0.000000 0.154029 -3.118860 16.268174 -7.072023 -1.846502 -26.589326 3.891025 14.395272 30.207465 6.739455 -3.784805 -31.044357 0.000000 0.000000 0.000000 2.279545 -20.433601 -78.851113 -12.843204 58.539445 -4.564739 -37.898515 -6.946371 -2.691440 0.000000 0.000000 0.000000 20.415360 -22.070163 57.583466 24.477921 70.423396 11.517504 -24.025921 22.621923 -5.702715 0.000000 0.000000 0.000000 
